<?xml version="1.0" encoding="UTF-8"?>
<svg width="72px" height="72px" viewBox="0 0 72 72" version="1.1" xmlns="http://www.w3.org/2000/svg" xmlns:xlink="http://www.w3.org/1999/xlink">
    <!-- Generator: Sketch 48.2 (47327) - http://www.bohemiancoding.com/sketch -->
    <title>profile-placeholder</title>
    <desc>Created with Sketch.</desc>
    <defs></defs>
    <g id="profile-desktop" stroke="none" stroke-width="1" fill="none" fill-rule="evenodd" transform="translate(-683.000000, -288.000000)">
        <g id="profile-placeholder" transform="translate(683.000000, 288.000000)">
            <circle id="Oval" fill="#FFFFFF" cx="36" cy="36" r="36"></circle>
            <path d="M36,72 C55.8655462,72 72,55.8655462 72,36 C72,16.1344538 55.8655462,0 36,0 C16.1344538,0 0,16.1344538 0,36 C0,55.8655462 16.1344538,72 36,72 Z M36,2.01680672 C54.7563025,2.01680672 69.9831933,17.2436975 69.9831933,36 C69.9831933,44.7731092 66.6554622,52.7394958 61.210084,58.789916 C54.4537815,50.1176471 45.4789916,45.3781513 36,45.3781513 C26.5210084,45.3781513 17.5462185,50.1176471 10.789916,58.789916 C5.34453782,52.7394958 2.01680672,44.7731092 2.01680672,36 C2.01680672,17.2436975 17.2436975,2.01680672 36,2.01680672 Z M36,38.3193277 C43.3613445,38.3193277 49.3109244,32.3697479 49.3109244,25.0084034 C49.3109244,17.6470588 43.3613445,11.697479 36,11.697479 C28.6386555,11.697479 22.6890756,17.6470588 22.6890756,25.0084034 C22.6890756,32.3697479 28.6386555,38.3193277 36,38.3193277 Z" id="Combined-Shape" fill="#EAEAEA" fill-rule="nonzero"></path>
        </g>
    </g>
</svg>