<?xml version="1.0" encoding="UTF-8"?>
<svg width="355px" height="170px" viewBox="0 0 355 170" version="1.1" xmlns="http://www.w3.org/2000/svg" xmlns:xlink="http://www.w3.org/1999/xlink">
    <!-- Generator: Sketch 48.2 (47327) - http://www.bohemiancoding.com/sketch -->
    <title>image-placeholder</title>
    <desc>Created with Sketch.</desc>
    <defs></defs>
    <g id="Extra-large-≥1200px" stroke="none" stroke-width="1" fill="none" fill-rule="evenodd" transform="translate(-935.000000, -914.000000)">
        <g id="image-placeholder" transform="translate(935.000000, 914.000000)">
            <rect id="container" fill="#FAFAFA" x="0" y="0" width="355" height="170"></rect>
            <path d="M138,53 C135.24736,53 133,55.24736 133,58 L133,112.0002 C133,114.7529 135.24736,117.0002 138,117.0002 L216.000003,117.0002 C218.752644,117.0002 221.000003,114.7529 221.000003,112.0002 L221.000003,58 C221.000003,55.24736 218.752644,53 216.000003,53 L138,53 Z M138,55 L216.000004,55 C217.679244,55 219.000004,56.32076 219.000004,58 L219.000004,106.4065 L199.75,85.3126 C199.525561,85.0663 199.17231,84.9445 198.84375,85.0001 C198.628891,85.0391 198.427881,85.1508 198.28125,85.3126 L183.21875,101.3127 L161.75,77.31264 C161.52556,77.06631 161.17231,76.9445 160.84375,77.00014 C160.62889,77.03914 160.42788,77.15081 160.28125,77.31264 L135,104.469 L135,58 C135,56.32076 136.32076,55 138,55 Z M184,65.00014 C180.145849,65.00014 177,68.14599 177,72.00014 C177,75.85429 180.145849,79.00014 184,79.00014 C187.85415,79.00014 191,75.85429 191,72.00014 C191,68.14599 187.85415,65.00014 184,65.00014 Z M183.5,67.00014 C183.66865,66.98314 183.826671,67.00014 184,67.00014 C186.773269,67.00014 189,69.22687 189,72.00014 C189,74.77341 186.773269,77.00014 184,77.00014 C181.22673,77.00014 179,74.77341 179,72.00014 C179,69.4002 180.970259,67.25493 183.5,67.00014 Z M160.96875,79.46889 L192.78125,115.0002 L138,115.0002 C136.32076,115.0002 135,113.6795 135,112.0002 L135,107.344 L160.96875,79.46889 Z M199,87.4689 L219.000002,109.3752 L219.000002,112.0002 C219.000002,113.6795 217.679242,115.0002 216.000002,115.0002 L195.46875,115.0002 L184.5625,102.8127 L199,87.4689 Z" id="placeholder-icon" fill="#EAEAEA" fill-rule="nonzero"></path>
        </g>
    </g>
</svg>