<?xml version="1.0" encoding="iso-8859-1"?>
<!-- Generator: Adobe Illustrator 19.0.0, SVG Export Plug-In . SVG Version: 6.00 Build 0)  -->
<svg version="1.1" id="Layer_1" xmlns="http://www.w3.org/2000/svg" xmlns:xlink="http://www.w3.org/1999/xlink" x="0px" y="0px"
	 viewBox="0 0 511.999 511.999" style="enable-background:new 0 0 511.999 511.999;" xml:space="preserve">
<g>
	<g>
		<path d="M501.185,334.67c-12.239-29.69-33.407-53.906-62.971-72.091c1.393-6.475,1.964-13.11,1.661-19.824
			c-1.792-40.1-34.638-72.465-74.786-73.681c-3.781-0.118-7.591,0.047-11.353,0.475c-10.337,1.204-20.392-3.683-25.614-12.444
			c-17.231-28.93-42.383-55.842-70.821-75.78c-30.638-21.479-61.81-32.831-90.147-32.831c-13.969,0-28.192,1.897-42.275,5.638
			c-5.67,1.506-9.045,7.324-7.54,12.993c1.506,5.669,7.325,9.049,12.993,7.54c12.305-3.269,24.693-4.927,36.822-4.927
			c48.005,0,109.36,42.233,142.717,98.24c9.503,15.942,27.688,24.845,46.294,22.675c2.735-0.31,5.528-0.425,8.289-0.345
			c29.093,0.883,52.899,24.336,54.197,53.4c0.317,7.031-0.65,13.938-2.872,20.52c-4.95,14.637-15.87,26.695-29.971,33.088
			c-7.262,3.3-15.036,4.976-23.107,4.976c-8.84,0-17.275-1.987-25.078-5.912c-14.587-7.324-32.493-6.213-46.738,2.899
			c-14.49,9.28-32.472,16.644-53.446,21.905c-0.524,0.088-1.035,0.21-1.53,0.373c-19.392,4.738-40.901,7.493-62.305,7.956
			c-2.028,0.05-4.139,0.073-6.451,0.073c-1.876,0-3.618-0.033-5.328-0.102c-19.365-0.771-39.462-5.8-58.117-14.543
			c-50.094-23.48-82.464-68.732-82.464-115.284c0-38.28,22.122-76.38,59.176-101.92c4.83-3.329,6.047-9.944,2.718-14.774
			c-3.329-4.831-9.946-6.046-14.775-2.718c-20.252,13.958-37.185,31.738-48.97,51.419C6.526,153.162,0,176.037,0,199.658
			c0,51.809,33.288,101.854,85.596,129.93c-1.098,3.887-1.674,7.922-1.674,12c0,20.635,14.26,37.995,33.441,42.761v68.532
			c0,5.866,4.756,10.622,10.622,10.622h34.335c5.867,0,10.622-4.757,10.622-10.622s-4.756-10.622-10.622-10.622h-23.713v-57.91
			c12.784-3.175,23.382-11.94,29.031-23.544c5.648,11.603,16.242,20.368,29.022,23.544v68.532c0,5.866,4.756,10.622,10.622,10.622
			h34.324c5.867,0,10.622-4.757,10.622-10.622s-4.756-10.622-10.622-10.622h-23.702v-57.91
			c19.181-4.766,33.441-22.127,33.441-42.761c0-0.712-0.044-1.418-0.078-2.127c19.573-5.625,36.722-13.102,51.069-22.288
			c7.961-5.091,17.829-5.784,25.747-1.809c10.784,5.424,22.43,8.174,34.617,8.174c9.787,0,19.267-1.794,28.236-5.33
			c60.598,17.74,99.536,89.874,99.926,90.607c1.861,3.518,5.499,5.654,9.385,5.654c0.582,0,1.17-0.049,1.757-0.147
			c4.512-0.756,8.034-4.316,8.741-8.836C512.371,395.107,514.688,367.426,501.185,334.67z M127.986,364.408
			c-12.582,0-22.818-10.237-22.818-22.818c0-0.953,0.066-1.901,0.183-2.84c14.304,5.618,29.176,9.362,43.912,11.048
			C145.955,358.331,137.677,364.408,127.986,364.408z M207.284,364.408c-9.521,0-17.69-5.866-21.105-14.17
			c14.89-0.88,29.665-2.774,43.696-5.599C228.376,355.78,218.83,364.408,207.284,364.408z M413.888,304.118
			c6.77-6,12.461-13.16,16.785-21.142c37.021,24.245,52.922,56.854,58.069,84.186C472.374,345.793,446.871,318.942,413.888,304.118z
			"/>
	</g>
</g>
<g>
	<g>
		<path d="M110.636,69.54c-2.433-5.338-8.732-7.696-14.071-5.261c-0.941,0.428-1.879,0.864-2.812,1.309
			c-5.297,2.519-7.55,8.857-5.031,14.154c1.819,3.827,5.628,6.063,9.6,6.063c1.529,0,3.083-0.331,4.555-1.031
			c0.829-0.394,1.66-0.782,2.496-1.163C110.713,81.179,113.069,74.879,110.636,69.54z"/>
	</g>
</g>
<g>
	<g>
		<path d="M374.6,220.943c-5.867,0-10.622,4.757-10.622,10.622v7.361c0,5.866,4.756,10.622,10.622,10.622
			s10.622-4.757,10.622-10.622v-7.361C385.223,225.7,380.467,220.943,374.6,220.943z"/>
	</g>
</g>
<g>
</g>
<g>
</g>
<g>
</g>
<g>
</g>
<g>
</g>
<g>
</g>
<g>
</g>
<g>
</g>
<g>
</g>
<g>
</g>
<g>
</g>
<g>
</g>
<g>
</g>
<g>
</g>
<g>
</g>
</svg>
